<?xml version="1.0" standalone="no"?>
<!DOCTYPE svg PUBLIC "-//W3C//DTD SVG 20010904//EN"
 "http://www.w3.org/TR/2001/REC-SVG-20010904/DTD/svg10.dtd">
<svg version="1.0" xmlns="http://www.w3.org/2000/svg"
 width="225.000000pt" height="225.000000pt" viewBox="0 0 225.000000 225.000000"
 preserveAspectRatio="xMidYMid meet">

<g transform="translate(0.000000,225.000000) scale(0.100000,-0.100000)"
fill="#000000" stroke="none">
<path d="M974 2156 c-155 -97 -775 -496 -902 -581 -56 -38 -72 -53 -70 -69 3
-19 11 -21 69 -24 l66 -3 6 -42 c4 -30 15 -50 36 -69 l31 -28 0 -464 c0 -402
-2 -465 -15 -470 -22 -8 -55 -67 -55 -97 0 -21 -6 -28 -29 -32 -95 -19 -140
-144 -80 -221 46 -59 -13 -56 1094 -56 1107 0 1048 -3 1094 56 60 77 17 198
-79 219 -24 5 -30 12 -30 33 0 31 -33 90 -55 98 -13 5 -15 68 -15 470 l0 464
31 28 c22 19 32 39 36 70 l6 42 62 0 c61 0 75 7 75 40 0 4 -75 57 -167 117
-323 212 -893 576 -941 602 -17 9 -41 -3 -168 -83z m664 -314 l446 -287 -476
-3 c-262 -1 -694 -1 -959 0 l-483 3 350 225 c192 123 407 262 479 307 l129 83
34 -21 c19 -11 235 -149 480 -307z m-1228 -377 c36 -44 -19 -67 -133 -56 -50
5 -62 10 -65 25 -7 33 25 46 109 46 55 0 80 -4 89 -15z m152 -4 c-5 -25 19
-80 44 -100 l24 -19 0 -466 c0 -461 0 -465 -21 -476 -26 -14 -52 -75 -44 -101
6 -17 1 -19 -34 -19 -40 0 -41 1 -41 36 0 28 -8 44 -35 71 l-35 35 0 459 c0
447 0 459 20 469 26 14 50 62 50 100 0 30 2 31 38 28 25 -2 36 -7 34 -17z
m259 9 c20 -11 26 -45 9 -55 -6 -4 -47 -7 -91 -7 -99 0 -130 19 -93 56 18 19
143 23 175 6z m519 -31 c0 -35 6 -47 35 -75 l35 -33 0 -456 0 -456 -35 -30
c-29 -26 -35 -38 -35 -70 l0 -39 -215 0 -215 0 0 39 c0 32 -6 44 -35 70 l-35
30 0 456 0 456 35 33 c29 28 35 40 35 75 l0 41 215 0 215 0 0 -41z m264 25
c18 -18 19 -24 7 -43 -6 -9 -32 -13 -95 -12 -48 0 -91 3 -96 6 -16 10 -11 43
8 54 29 17 158 14 176 -5z m156 -14 c0 -40 25 -87 50 -95 20 -6 20 -14 20
-470 l0 -463 -35 -35 c-27 -27 -35 -43 -35 -71 0 -35 -1 -36 -41 -36 -35 0
-40 2 -34 19 8 26 -18 87 -44 101 -21 11 -21 15 -21 475 l0 465 31 28 c26 23
32 36 32 70 l0 42 38 0 c37 0 39 -2 39 -30z m264 17 c10 -7 17 -22 14 -33 -2
-15 -14 -20 -53 -25 -79 -9 -149 2 -153 25 -7 32 25 46 103 46 43 0 78 -5 89
-13z m-1674 -587 l0 -460 -35 0 -35 0 0 460 0 460 35 0 35 0 0 -460z m420 0
l0 -460 -35 0 -35 0 0 453 c0 250 3 457 7 460 3 4 19 7 35 7 l28 0 0 -460z
m778 -2 l2 -458 -35 0 -35 0 0 461 0 460 33 -3 32 -3 3 -457z m422 2 l0 -460
-35 0 -35 0 0 460 0 460 35 0 35 0 0 -460z m-1553 -546 c3 -9 2 -24 -4 -33
-15 -24 -181 -23 -196 1 -8 12 -7 21 2 32 20 24 189 23 198 0z m418 -19 l0
-30 -94 0 c-77 0 -96 3 -104 17 -8 12 -7 21 3 33 11 13 30 15 104 13 l91 -3 0
-30z m776 19 c9 -11 10 -20 2 -32 -15 -25 -174 -30 -197 -7 -12 12 -13 21 -6
36 9 17 22 19 99 19 69 0 92 -4 102 -16z m420 0 c9 -11 10 -20 2 -32 -15 -24
-181 -25 -196 -1 -6 9 -7 24 -4 33 9 23 178 24 198 0z m126 -146 c29 -27 29
-65 1 -95 l-21 -23 -1009 0 -1009 0 -24 25 c-39 38 -28 96 20 108 11 2 470 5
1019 6 l1000 1 23 -22z"/>
<path d="M1065 1950 c-50 -24 -75 -65 -75 -120 0 -80 57 -140 133 -140 81 0
137 58 137 142 0 39 -6 54 -31 82 -26 31 -78 56 -114 56 -5 0 -28 -9 -50 -20z
m105 -70 c46 -46 18 -120 -45 -120 -53 0 -85 52 -60 100 23 44 71 54 105 20z"/>
<path d="M950 1091 c0 -24 5 -29 31 -35 17 -3 46 -6 64 -6 22 0 41 -9 59 -26
28 -29 34 -46 14 -43 -7 1 -48 1 -90 0 l-78 -1 0 -35 0 -35 91 0 91 0 -14 -22
c-18 -28 -68 -47 -125 -47 -42 -1 -43 -2 -43 -36 0 -22 5 -35 13 -35 7 0 57
-45 112 -100 55 -55 105 -100 111 -100 6 0 19 9 29 20 19 20 18 22 -64 104
-76 77 -82 84 -62 91 33 10 87 61 101 95 11 28 16 30 61 30 l49 0 0 35 c0 35
0 35 -45 35 -39 0 -46 3 -60 30 -9 17 -14 34 -11 38 2 4 29 7 60 6 l56 -1 0
34 0 33 -175 0 -175 0 0 -29z"/>
</g>
</svg>
